<?xml version="1.0" standalone="no"?><!DOCTYPE svg PUBLIC "-//W3C//DTD SVG 1.1//EN" "http://www.w3.org/Graphics/SVG/1.1/DTD/svg11.dtd"><svg t="1671945866237" class="icon" viewBox="0 0 1024 1024" version="1.1" xmlns="http://www.w3.org/2000/svg" p-id="1526" width="16" height="16" xmlns:xlink="http://www.w3.org/1999/xlink"><path d="M513.12 523.2m-464 0a464 464 0 1 0 928 0 464 464 0 1 0-928 0Z" p-id="1527" data-spm-anchor-id="a313x.7781069.0.i10" class=""></path><path d="M602.72 304c-22.08 6.4-44 13.76-66.4 19.04a321.44 321.44 0 0 1-77.28 8.48 141.12 141.12 0 0 0-23.2 1.28 13.44 13.44 0 0 0-9.6 20.96c12.16 21.76 24.8 43.04 37.28 64 10.56 18.56 20.8 37.28 32 55.84 13.28 23.04 27.04 45.76 40.48 68.8 2.24 3.68 3.84 7.52 6.4 12.64-7.68-0.8-13.44-1.44-19.36-1.76a113.28 113.28 0 0 0-49.6 8 105.28 105.28 0 0 0-61.44 58.72 78.56 78.56 0 0 0-4 46.24 90.88 90.88 0 0 0 60.32 66.88 71.84 71.84 0 0 0 25.12 8 155.52 155.52 0 0 0 47.04-2.08 195.36 195.36 0 0 0 32-11.04 100.32 100.32 0 0 0 43.04-40 80 80 0 0 0 1.92-77.92c-7.2-13.92-16-27.2-23.52-40.64-10.24-17.92-20.48-35.84-30.88-53.76-13.44-23.36-27.04-46.56-40.48-69.76-2.88-4.96-5.28-9.92-8.16-16a292.96 292.96 0 0 0 131.36-144l1.76 1.12c1.92 11.2 4.16 22.24 5.44 33.6a13.12 13.12 0 0 0 5.76 10.88A237.28 237.28 0 0 1 746.4 464a246.72 246.72 0 0 1 5.6 78.72 220.16 220.16 0 0 1-12.16 59.36 289.6 289.6 0 0 1-21.12 45.12 233.28 233.28 0 0 1-60.96 68.48 249.44 249.44 0 0 1-51.2 29.28 240 240 0 0 1-61.28 16.96 246.08 246.08 0 0 1-64 0 224.96 224.96 0 0 1-76.64-23.68 245.92 245.92 0 0 1-108.8-112 205.76 205.76 0 0 1-18.88-60.64 305.6 305.6 0 0 1-4-43.52 243.2 243.2 0 0 1 59.52-157.12 226.72 226.72 0 0 1 77.44-58.72 343.04 343.04 0 0 1 43.52-16 218.72 218.72 0 0 1 84-6.72 296.96 296.96 0 0 1 42.08 8.48 145.92 145.92 0 0 1 17.92 5.76 56.64 56.64 0 0 1 5.28 3.04z" fill="#FFFFFF" p-id="1528"></path></svg>